<?xml version="1.0" encoding="utf-8"?>
<!-- Generator: Adobe Illustrator 27.6.1, SVG Export Plug-In . SVG Version: 6.00 Build 0)  -->
<svg version="1.1" xmlns="http://www.w3.org/2000/svg" xmlns:xlink="http://www.w3.org/1999/xlink" x="0px" y="0px"
	 viewBox="0 0 269.4 269.4" style="enable-background:new 0 0 269.4 269.4;" xml:space="preserve">
<style type="text/css">
	.st0{fill:#FFFFFF;}
	.st1{fill:#E30613;}
</style>
<g id="Weißraum">
</g>
<g id="Ebene_1">
	<rect y="0" class="st0" width="269.4" height="269.4"/>
	<g>
		<g>
			<rect x="113.4" y="42.5" class="st1" width="42.6" height="127.7"/>
			<rect x="70.8" y="85.1" class="st1" width="127.7" height="42.6"/>
		</g>
		<g>
			<g>
				<path d="M56.5,205.5c-4.2,0-6.9-3.7-6.9-7.1c0-3.7,2.7-7,6.9-7c4.2,0,6.9,3.3,6.9,7C63.4,201.8,60.7,205.5,56.5,205.5z
					 M60.3,198.4c0-2-1.5-4.2-3.9-4.2c-2.4,0-3.8,2-3.8,4.2c0,2,1.4,4.3,3.9,4.3C58.8,202.7,60.3,200.4,60.3,198.4z M51,190
					c0.8,0,1.4,0.6,1.4,1.4s-0.6,1.4-1.4,1.4c-0.8,0-1.4-0.6-1.4-1.4S50.2,190,51,190z M60.6,191.4c0-0.8,0.6-1.4,1.4-1.4
					c0.8,0,1.4,0.6,1.4,1.4s-0.6,1.4-1.4,1.4C61.2,192.8,60.6,192.2,60.6,191.4z"/>
				<path d="M68.9,205.5c-2.1,0-3.5-0.8-4.7-2l1.9-2.3c0.7,0.8,1.8,1.5,2.7,1.5c0.9,0,1.6-0.4,1.6-1.4c0-1-0.9-1.5-1.8-1.9
					c-1.9-0.9-3.7-1.8-3.7-4.1c0-2.5,2.1-4,4.4-4c1.8,0,2.8,0.6,3.9,1.8l-1.9,2.1c-0.5-0.7-1.1-1.3-2-1.3c-0.7,0-1.3,0.5-1.3,1.2
					c0,2.1,5.5,1.5,5.5,5.8C73.5,203.9,71.4,205.5,68.9,205.5z"/>
				<path d="M80.4,194.3v11h-3v-11h-2.9v-2.7h8.8v2.6H80.4z"/>
				<path d="M92.9,194.3h-4.8v2.7h3.8v2.7h-3.8v2.9h4.8v2.7h-7.8v-13.7h7.8V194.3z"/>
				<path d="M101.5,205.3l-3-5.4H98v5.4h-2.9v-13.7h4.5c2.7,0,4.6,1.3,4.6,4c0,1.8-1,3.3-2.7,4l3.2,5.7H101.5z M99,194h-1v3.6h1.3
					c1.1,0,2-0.6,2-1.8C101.4,194.4,100.2,194,99,194z"/>
				<path d="M113,205.3l-3-5.4h-0.5v5.4h-2.9v-13.7h4.5c2.7,0,4.6,1.3,4.6,4c0,1.8-1,3.3-2.7,4l3.2,5.7H113z M110.5,194h-1v3.6h1.3
					c1.1,0,2-0.6,2-1.8C112.9,194.4,111.7,194,110.5,194z"/>
				<path d="M125.9,194.3h-4.8v2.7h3.8v2.7h-3.8v2.9h4.8v2.7h-7.8v-13.7h7.8V194.3z"/>
				<path d="M128.2,205.3v-13.7h3v13.7H128.2z"/>
				<path d="M139.9,205.5c-4,0-6.7-2.8-6.7-7c0-4.9,3.3-7.1,6.9-7.1c1.4,0,2.6,0.3,3.6,0.9v3.3c-1.1-1-2.4-1.5-3.5-1.5
					c-2.4,0-4,1.8-4,4.4c0,2.6,1.5,4.3,4,4.3c1.3,0,2.4-0.4,3.5-1.4v3C142.7,205.2,141.3,205.5,139.9,205.5z"/>
				<path d="M154,205.3v-5.6h-5v5.6h-3v-13.7h3v5.4h5v-5.4h3v13.7H154z"/>
				<path d="M159.8,205.3v-13.7h3v13.7H159.8z"/>
				<path d="M169.2,205.5c-2.1,0-3.5-0.8-4.7-2l1.9-2.3c0.7,0.8,1.8,1.5,2.7,1.5c0.9,0,1.6-0.4,1.6-1.4c0-1-0.9-1.5-1.8-1.9
					c-1.9-0.9-3.7-1.8-3.7-4.1c0-2.5,2.1-4,4.4-4c1.8,0,2.8,0.6,3.9,1.8l-1.9,2.1c-0.5-0.7-1.1-1.3-2-1.3c-0.7,0-1.3,0.5-1.3,1.2
					c0,2.1,5.5,1.5,5.5,5.8C173.8,203.9,171.6,205.5,169.2,205.5z"/>
				<path d="M181.7,205.5c-4,0-6.7-2.8-6.7-7c0-4.9,3.3-7.1,6.9-7.1c1.4,0,2.6,0.3,3.6,0.9v3.3c-1.1-1-2.4-1.5-3.5-1.5
					c-2.4,0-4,1.8-4,4.4c0,2.6,1.5,4.3,4,4.3c1.3,0,2.4-0.4,3.5-1.4v3C184.5,205.2,183.1,205.5,181.7,205.5z"/>
				<path d="M195.8,205.3v-5.6h-5v5.6h-3v-13.7h3v5.4h5v-5.4h3v13.7H195.8z"/>
				<path d="M209.3,194.3h-4.8v2.7h3.8v2.7h-3.8v2.9h4.8v2.7h-7.8v-13.7h7.8V194.3z"/>
				<path d="M215.2,205.5c-2.1,0-3.5-0.8-4.7-2l1.9-2.3c0.7,0.8,1.8,1.5,2.7,1.5c0.9,0,1.6-0.4,1.6-1.4c0-1-0.9-1.5-1.8-1.9
					c-1.9-0.9-3.7-1.8-3.7-4.1c0-2.5,2.1-4,4.4-4c1.7,0,2.8,0.6,3.9,1.8l-1.9,2.1c-0.5-0.7-1.1-1.3-2-1.3c-0.7,0-1.3,0.5-1.3,1.2
					c0,2.1,5.5,1.5,5.5,5.8C219.8,203.9,217.7,205.5,215.2,205.5z"/>
			</g>
			<g>
				<path d="M83.2,226.6l-3-5.4h-0.5v5.4h-2.9V213h4.5c2.7,0,4.6,1.3,4.6,4c0,1.8-1,3.3-2.7,3.9l3.2,5.7H83.2z M80.7,215.4h-1v3.6
					H81c1.1,0,2-0.6,2-1.8C83,215.7,81.9,215.4,80.7,215.4z"/>
				<path d="M94.3,226.9c-4.3,0-6.9-3.2-6.9-7c0-3.8,2.6-7.1,6.7-7.1c4.2,0,7,3.3,7,7C101.2,223.2,98.5,226.9,94.3,226.9z
					 M98.1,219.8c0-2-1.5-4.2-3.9-4.2c-2.4,0-3.8,2-3.8,4.2c0,2,1.4,4.3,3.9,4.3C96.6,224.1,98.1,221.8,98.1,219.8z"/>
				<path d="M107.9,215.6v11h-3v-11h-2.9V213h8.8v2.6H107.9z"/>
				<path d="M120.4,215.6h-4.8v2.7h3.8v2.7h-3.8v2.9h4.8v2.7h-7.8V213h7.8V215.6z"/>
				<path d="M126.3,226.9c-2.1,0-3.5-0.8-4.7-2l1.9-2.3c0.7,0.8,1.8,1.5,2.7,1.5c0.9,0,1.6-0.4,1.6-1.4c0-1-0.9-1.5-1.8-1.9
					c-1.9-0.9-3.7-1.8-3.7-4.1c0-2.5,2.1-4,4.4-4c1.8,0,2.8,0.6,3.9,1.8l-1.9,2.1c-0.5-0.7-1.1-1.3-2-1.3c-0.7,0-1.3,0.5-1.3,1.2
					c0,2.1,5.5,1.5,5.5,5.8C130.9,225.3,128.8,226.9,126.3,226.9z"/>
				<path d="M140,226.6h-3V213h3v5.2l4-5.2h3.6l-4.8,6l5,7.7h-3.6l-3.3-5.2l-0.8,1V226.6z"/>
				<path d="M155.4,226.6l-3-5.4h-0.5v5.4H149V213h4.5c2.7,0,4.6,1.3,4.6,4c0,1.8-1,3.3-2.7,3.9l3.2,5.7H155.4z M152.9,215.4h-1v3.6
					h1.3c1.1,0,2-0.6,2-1.8C155.3,215.7,154.1,215.4,152.9,215.4z"/>
				<path d="M168.3,215.6h-4.8v2.7h3.8v2.7h-3.8v2.9h4.8v2.7h-7.8V213h7.8V215.6z"/>
				<path d="M175.6,226.9c-3.3,0-5.2-2.1-5.2-5.4V213h2.9v8.5c0,1.3,0.6,2.8,2.3,2.8c1.8,0,2.3-1.5,2.3-2.8V213h2.9v8.5
					C180.8,224.8,178.9,226.9,175.6,226.9z"/>
				<path d="M182.6,226.6V225l5.8-9.4h-5.5V213h9.4v1.6l-5.7,9.4h6v2.6H182.6z"/>
			</g>
		</g>
	</g>
</g>
</svg>
